<svg xmlns="http://www.w3.org/2000/svg" width="80" height="80" viewBox="0 0 80 80" fill="none"><path d="M36 10H44C49.5228 10 54 14.4772 54 20V46H26V20C26 14.4772 30.4772 10 36 10Z" stroke="#26222F" stroke-width="4"></path><path d="M24 46H56C59.3137 46 62 48.6863 62 52V56C62 57.1046 61.1046 58 60 58H20C18.8954 58 18 57.1046 18 56V52C18 48.6863 20.6863 46 24 46Z" stroke="#26222F" stroke-width="4"></path><path d="M40 60V72" stroke="#26222F" stroke-width="4"></path><path d="M24 72H56" stroke="#26222F" stroke-width="4"></path><path d="M19 49L19.0001 38C19.0001 34.6863 21.6864 32 25.0001 32H26.0001" stroke="#26222F" stroke-width="4"></path><path d="M61 49L60.9999 38C60.9999 34.6863 58.3136 32 54.9999 32H53.9999" stroke="#26222F" stroke-width="4"></path></svg>