<svg xmlns="http://www.w3.org/2000/svg" width="80" height="80" viewBox="0 0 80 80" fill="none">
    <path d="M20 16H60C61.1046 16 62 16.8954 62 18V42C62 43.1046 61.1046 44 60 44H20C18.8954 44 18 43.1046 18 42V18C18 16.8954 18.8954 16 20 16Z" stroke="#26222F" stroke-width="4"></path>
    <path d="M8 65V57C8 52.5817 11.5817 49 16 49H64C68.4183 49 72 52.5817 72 57V65" stroke="#26222F" stroke-width="4"></path>
    <path d="M16.5 44H63.5C64.8807 44 66 45.1193 66 46.5C66 47.8807 64.8807 49 63.5 49H16.5C15.1193 49 14 47.8807 14 46.5C14 45.1193 15.1193 44 16.5 44Z" stroke="#26222F" stroke-width="4"></path>
</svg>