<svg xmlns="http://www.w3.org/2000/svg" width="80" height="80" viewBox="0 0 80 80" fill="none">
    <rect x="10" y="10" width="60" height="60" rx="6" stroke="#26222F" stroke-width="4"></rect>
    <path fill-rule="evenodd" clip-rule="evenodd" d="M40 32C35.5817 32 32 35.5817 32 40V48C32 52.4183 35.5817 56 40 56C44.4183 56 48 52.4183 48 48V40C48 35.5817 44.4183 32 40 32ZM41 36C41 35.4477 40.5523 35 40 35C39.4477 35 39 35.4477 39 36V39C39 39.5523 39.4477 40 40 40C40.5523 40 41 39.5523 41 39V36Z" fill="#26222F"></path>
</svg>