<svg xmlns="http://www.w3.org/2000/svg" width="80" height="80" viewBox="0 0 80 80" fill="none">
    <path d="M28.1868 67.5L22.6313 47.5H57.3687L51.8132 67.5H28.1868Z" stroke="#26222F" stroke-width="4"></path>
    <path d="M18 47.5H62" stroke="#26222F" stroke-width="4"></path>
    <path d="M25.9999 46C25.0805 42.5213 24 39.5 20 34C31.6997 34.3063 36 39 39.9998 48" stroke="#26222F" stroke-width="4"></path>
    <path d="M55.5001 46C56.4195 42.5213 59 38 61.5 34.5C56.5 35.5 53.5 37.5 51 39.5" stroke="#26222F" stroke-width="4"></path>
    <path d="M30.5 26C30.5 20 30.5 16.5 32 11C38.5 16 41 20 43.5 24" stroke="#26222F" stroke-width="4"></path>
    <path d="M50 46.5C50 35.5 52 27.5 58.5 19.5C46.8003 19.8063 41 27 39 31" stroke="#26222F" stroke-width="4"></path>
    <path d="M27.9999 36C27.0805 32.5213 26.5 29.5 22 24.5C33 26 41 30.5 45 46.5" stroke="#26222F" stroke-width="4"></path>
</svg>